<svg width="37" height="54" viewBox="0 0 37 54" fill="none" xmlns="http://www.w3.org/2000/svg">
<path fill-rule="evenodd" clip-rule="evenodd" d="M34.8232 23.7754H2.67681C1.49268 23.7754 0.530151 24.7379 0.530151 25.922V51.1696C0.530151 52.3537 1.49268 53.3162 2.67681 53.3162H34.8232C35.4118 53.3162 35.9491 53.0745 36.3386 52.685L36.3408 52.6872C36.7303 52.2977 36.9698 51.7605 36.9698 51.1696V25.922C36.9698 24.7357 35.9983 23.7754 34.8232 23.7754ZM5.47725 21.8481V13.7762C5.47725 2.10286 19.7138 -4.00345 28.1215 4.40418C30.6129 6.89559 32.0208 10.2486 32.0208 13.7762V21.8504H28.699V13.7762C28.699 5.02192 18.0238 0.446203 11.7204 6.74734C9.85132 8.61642 8.79698 11.1279 8.79698 13.7762V21.8504H5.47737L5.47725 21.8481ZM25.4643 31.8316C29.1712 35.5384 29.1712 41.5532 25.4643 45.2602C19.4989 51.2255 9.25587 46.9793 9.25587 38.547C9.25363 30.1124 19.4967 25.8662 25.4643 31.8316ZM18.7488 27.1264C28.8888 27.1264 34.0014 39.4444 26.8252 46.6212C19.6468 53.7973 7.32874 48.685 7.32874 38.5448C7.32874 32.239 12.4408 27.1264 18.7488 27.1264ZM22.2654 34.9209C23.1608 34.0255 24.5217 35.3865 23.6264 36.2818L17.7373 42.171C17.3612 42.547 16.7523 42.547 16.3763 42.171L13.8737 39.6684C12.9783 38.773 14.3393 37.412 15.2347 38.3074L17.059 40.1317L22.2654 34.9209Z" fill="#36A342"/>
</svg>
