<svg width="66" height="50" viewBox="0 0 66 50" fill="none" xmlns="http://www.w3.org/2000/svg">
<path d="M3.53575 43.8571H36.5357C37.4731 43.8561 38.3718 43.4832 39.0347 42.8204C39.6975 42.1575 40.0704 41.2588 40.0714 40.3214V39.631L36.8809 36.4406C36.7113 36.2709 36.5974 36.0535 36.5546 35.8174C36.5118 35.5814 36.5421 35.3378 36.6413 35.1194L40.6724 26.2512C41.8336 23.7063 42.4326 20.9409 42.4286 18.1435C42.423 13.6954 40.9094 9.38055 38.1351 5.90361L35.799 2.98365C34.9991 1.98377 33.9498 1.21242 32.7568 0.747365C31.5638 0.282311 30.2693 0.139988 29.0038 0.334741L2.99812 4.33558C2.16172 4.46026 1.39826 4.88216 0.847634 5.52397C0.29701 6.16578 -0.00390222 6.98452 3.82145e-05 7.83015V33.25H13.4058C11.4585 31.9617 9.86073 30.211 8.75537 28.1543C7.65 26.0977 7.07146 23.7992 7.07146 21.4643C7.07146 19.1294 7.65 16.8309 8.75537 14.7742C9.86073 12.7176 11.4585 10.9669 13.4058 9.67857H7.07146V7.32143H21.2143C24.9652 7.32143 28.5625 8.81147 31.2148 11.4638C33.8671 14.1161 35.3572 17.7134 35.3572 21.4643C35.3572 25.2152 33.8671 28.8125 31.2148 31.4648C28.5625 34.1171 24.9652 35.6071 21.2143 35.6071H3.82145e-05V40.3214C0.00111048 41.2588 0.373966 42.1575 1.03681 42.8204C1.69965 43.4832 2.59835 43.8561 3.53575 43.8571Z" fill="#36A342"/>
<path d="M33 21.4643C33 19.1333 32.3088 16.8546 31.0138 14.9165C29.7187 12.9783 27.8781 11.4677 25.7245 10.5757C23.5709 9.68367 21.2012 9.45028 18.915 9.90503C16.6288 10.3598 14.5288 11.4823 12.8805 13.1305C11.2323 14.7788 10.1098 16.8788 9.65505 19.165C9.2003 21.4512 9.4337 23.8209 10.3257 25.9745C11.2178 28.128 12.7284 29.9687 14.6665 31.2637C16.6047 32.5588 18.8833 33.25 21.2143 33.25C24.339 33.2465 27.3347 32.0036 29.5442 29.7941C31.7537 27.5847 32.9965 24.589 33 21.4643ZM21.2143 27.3571C20.0488 27.3571 18.9095 27.0115 17.9404 26.364C16.9713 25.7165 16.216 24.7962 15.77 23.7194C15.324 22.6426 15.2073 21.4577 15.4347 20.3146C15.6621 19.1715 16.2233 18.1215 17.0474 17.2974C17.8716 16.4733 18.9216 15.912 20.0647 15.6847C21.2078 15.4573 22.3926 15.574 23.4694 16.02C24.5462 16.466 25.4665 17.2213 26.114 18.1904C26.7616 19.1595 27.1072 20.2988 27.1072 21.4643C27.1054 23.0266 26.4839 24.5245 25.3792 25.6292C24.2745 26.7339 22.7766 27.3554 21.2143 27.3571Z" fill="#36A342"/>
<path d="M21.2143 17.9286C20.617 17.9284 20.0295 18.0796 19.5064 18.368C18.9834 18.6565 18.542 19.0727 18.2234 19.5779C17.9049 20.0831 17.7195 20.6608 17.6846 21.2571C17.6498 21.8534 17.7665 22.4487 18.0241 22.9876L22.7377 18.2741C22.2622 18.0461 21.7416 17.928 21.2143 17.9286Z" fill="#36A342"/>
<path d="M63.6429 39.1429H55.552L59.4806 43.8571H62.4643C62.7368 43.8571 63.0008 43.9515 63.2115 44.1242C63.4222 44.297 63.5666 44.5374 63.62 44.8045L64.6091 49.75H66V41.5C65.9993 40.8751 65.7507 40.2759 65.3088 39.834C64.8669 39.3921 64.2678 39.1436 63.6429 39.1429Z" fill="#36A342"/>
<path d="M19.6909 24.6545C20.3506 24.9697 21.0918 25.0727 21.8124 24.9492C22.5331 24.8256 23.1977 24.4816 23.7146 23.9646C24.2316 23.4477 24.5756 22.7831 24.6992 22.0624C24.8227 21.3418 24.7197 20.6006 24.4045 19.9409L19.6909 24.6545Z" fill="#36A342"/>
<path d="M41.6875 29.7143H45.1475L48.216 21.5316L46.4144 17.9286H44.7834C44.7841 18.0002 44.7857 18.0718 44.7857 18.1435C44.7902 21.2774 44.1192 24.3755 42.8183 27.2266L41.6875 29.7143Z" fill="#36A342"/>
<path d="M42.4286 39.1429V40.3214C42.4299 41.5972 42.015 42.8386 41.2468 43.8571H44.7858V41.5H47.1429V43.8571H49.5V41.5H51.8572V43.8571H56.4124L52.4838 39.1429H42.4286Z" fill="#36A342"/>
</svg>
