<svg width="46" height="49" viewBox="0 0 46 49" fill="none" xmlns="http://www.w3.org/2000/svg">
<path d="M38.0607 4.27156V1.53323C38.0607 0.779091 37.4457 0.164062 36.6916 0.164062C35.9374 0.164062 35.3224 0.779119 35.3224 1.53323V4.27156C35.3224 5.02569 35.9374 5.64072 36.6916 5.64072C37.4457 5.64072 38.0607 5.02567 38.0607 4.27156Z" fill="#36A342"/>
<path d="M10.6774 4.27156V1.53323C10.6774 0.779091 10.0624 0.164062 9.30825 0.164062C8.55414 0.164062 7.93909 0.779119 7.93909 1.53323V4.27156C7.93909 5.02569 8.55414 5.64072 9.30825 5.64072C10.0624 5.64072 10.6774 5.02567 10.6774 4.27156Z" fill="#36A342"/>
<path d="M44.2221 4.27148H40.7992C40.7992 6.53115 38.9513 8.37898 36.6917 8.37898C34.432 8.37898 32.5842 6.53115 32.5842 4.27148H13.4159C13.4159 6.53115 11.5681 8.37898 9.30838 8.37898C7.04871 8.37898 5.20089 6.53115 5.20089 4.27148H1.77798C1.02384 4.27148 0.408813 4.88654 0.408813 5.64065V11.8019H45.5912V5.64065C45.5912 4.88651 44.9762 4.27148 44.2221 4.27148Z" fill="#36A342"/>
<path d="M1.77798 48.0848C1.02387 48.0848 0.408813 47.4698 0.408813 46.7157V14.5403H45.5912V46.7157C45.5912 47.4698 44.9762 48.0848 44.2221 48.0848H1.77798Z" fill="#36A342"/>
<path d="M12.3387 27.0984C13.3026 27.0545 13.9817 26.9888 14.3761 26.9012C14.9675 26.7698 15.4714 26.5069 15.8657 26.0906C16.1286 25.8059 16.3258 25.4334 16.4572 24.9734C16.5448 24.7105 16.5886 24.4915 16.5886 24.36H19.1079V39.8699H15.9972V29.1795H12.3387V27.0984Z" fill="white"/>
<path d="M33.1865 26.3316C33.9751 27.7336 34.3914 29.7052 34.3914 32.2683C34.3914 34.8314 33.9751 36.803 33.1865 38.1831C32.3979 39.5632 31.0177 40.2642 29.0242 40.2642C27.0526 40.2642 25.6725 39.5632 24.8839 38.1831C24.0733 36.803 23.679 34.8314 23.679 32.2683C23.679 29.7052 24.0733 27.7336 24.8839 26.3316C25.6725 24.9515 27.0526 24.2505 29.0242 24.2505C31.0177 24.2505 32.3979 24.9515 33.1865 26.3316ZM27.2279 36.343C27.5346 37.3068 28.1261 37.7669 29.0242 37.7669C29.9443 37.7669 30.5358 37.3068 30.8206 36.343C31.1054 35.401 31.2368 34.0428 31.2368 32.2683C31.2368 30.3843 31.1054 29.0042 30.8206 28.1061C30.5358 27.2079 29.9443 26.7698 29.0242 26.7698C28.1261 26.7698 27.5346 27.2079 27.2279 28.1061C26.9431 29.0042 26.7898 30.3843 26.7898 32.2683C26.7898 34.0428 26.9431 35.401 27.2279 36.343Z" fill="white"/>
</svg>
