<svg width="54" height="49" viewBox="0 0 54 49" fill="none" xmlns="http://www.w3.org/2000/svg">
<path d="M3.22274 3.22262H32.2262V0H0V40.5126H3.22262L3.22274 3.22262Z" fill="#FFD93B"/>
<path d="M37.7504 4.60388H4.60376V46.9579H37.7504V4.60388ZM17.0569 15.4848V13.0702H19.4715L21.1772 11.3645L22.8829 13.0702H25.2975V15.4848L27.0032 17.1905L25.2975 18.8961V21.3108H22.8829L21.1772 23.0164L19.4715 21.3108H17.0569V18.8961L15.3512 17.1905L17.0569 15.4848ZM11.0492 39.592C10.5405 39.592 10.1285 39.18 10.1285 38.6713C10.1285 38.1626 10.5405 37.7505 11.0492 37.7505C11.5579 37.7505 11.97 38.1626 11.97 38.6713C11.97 39.18 11.5579 39.592 11.0492 39.592ZM11.0492 34.9883C10.5405 34.9883 10.1285 34.5763 10.1285 34.0676C10.1285 33.5589 10.5405 33.1468 11.0492 33.1468C11.5579 33.1468 11.97 33.5589 11.97 34.0676C11.97 34.5763 11.5579 34.9883 11.0492 34.9883ZM11.0492 30.3846C10.5405 30.3846 10.1285 29.9726 10.1285 29.4639C10.1285 28.9552 10.5405 28.5431 11.0492 28.5431C11.5579 28.5431 11.97 28.9552 11.97 29.4639C11.97 29.9726 11.5579 30.3846 11.0492 30.3846ZM31.0751 39.3616H14.962C14.5799 39.3616 14.2714 39.0532 14.2714 38.671C14.2714 38.2889 14.5799 37.9805 14.962 37.9805H31.0751C31.4572 37.9805 31.7657 38.2889 31.7657 38.671C31.7657 39.0532 31.4572 39.3616 31.0751 39.3616ZM31.0751 34.7579H14.962C14.5799 34.7579 14.2714 34.4494 14.2714 34.0673C14.2714 33.6852 14.5799 33.3768 14.962 33.3768H31.0751C31.4572 33.3768 31.7657 33.6852 31.7657 34.0673C31.7657 34.4494 31.4572 34.7579 31.0751 34.7579ZM31.0751 30.1542H14.962C14.5799 30.1542 14.2714 29.8457 14.2714 29.4636C14.2714 29.0815 14.5799 28.7731 14.962 28.7731H31.0751C31.4572 28.7731 31.7657 29.0815 31.7657 29.4636C31.7657 29.8457 31.4572 30.1542 31.0751 30.1542Z" fill="#FFD93B"/>
<path d="M40.5134 22.0981H47.8793V41.2036H40.5134V22.0981Z" fill="#D91920"/>
<path d="M44.9619 47.6508L47.7241 43.5075C47.8254 43.3556 47.8784 43.1784 47.8784 42.9965V42.5845H40.5125V42.9965C40.5125 43.1783 40.5654 43.3556 40.6667 43.5075L43.4289 47.6508C43.7926 48.1987 44.5959 48.1987 44.9619 47.6508Z" fill="#D91920"/>
<path d="M52.4826 14.5019C51.9739 14.5019 51.5618 14.0898 51.5618 13.5811V8.97743C51.5618 7.45363 50.3234 6.21521 48.7996 6.21521H46.9581C46.7279 6.21521 46.5254 6.30728 46.3665 6.44539H41.4337C40.925 6.44539 40.5129 6.85742 40.5129 7.36613V20.7167H47.8789V8.05676H48.7996C49.3083 8.05676 49.7203 8.46879 49.7203 8.9775V13.5812C49.7203 15.105 50.9588 16.3434 52.4826 16.3434C52.9913 16.3434 53.4033 15.9314 53.4033 15.4227C53.4033 14.914 52.9913 14.5019 52.4826 14.5019Z" fill="#D91920"/>
<path d="M41.4336 2.76234V5.52456H46.958V2.76234C46.958 1.23624 45.7219 0.00012207 44.1958 0.00012207C42.6697 0.00012207 41.4336 1.23624 41.4336 2.76234Z" fill="#D91920"/>
</svg>
