<svg width="49" height="52" viewBox="0 0 49 52" fill="none" xmlns="http://www.w3.org/2000/svg">
<path d="M48.801 9.51131C48.801 4.78109 44.9527 0.932861 40.2226 0.932861C35.4923 0.932861 31.6441 4.78116 31.6441 9.51131C31.6441 10.7567 31.906 11.9592 32.4218 13.0817C32.6677 13.6162 33.3037 13.854 33.8382 13.6082C34.3753 13.3623 34.6105 12.7262 34.3646 12.1918C33.9798 11.35 33.782 10.4494 33.782 9.514C33.782 5.96235 36.671 3.07342 40.2226 3.07342C43.7743 3.07342 46.6632 5.96235 46.6632 9.514C46.6632 10.118 46.567 10.7086 46.404 11.2751C45.6985 9.84266 44.7096 8.55989 43.4857 7.52034C44.0522 8.98481 44.397 10.5402 44.4878 12.1356C44.7337 16.481 43.1115 20.738 40.0356 23.8167C37.6411 26.2112 34.4528 27.7318 31.0856 28.154V46.7544C31.0856 47.3103 31.3101 47.8555 31.7056 48.251L34.1482 50.6962C34.5491 51.0971 35.0782 51.3162 35.6448 51.3162C36.2113 51.3162 36.7405 51.0971 37.1387 50.6962L39.0735 48.7641C39.4717 48.3632 39.6935 47.8341 39.6935 47.2675V45.3059C39.6935 44.7394 39.4744 44.2102 39.0735 43.8094L37.9751 42.7431L39.2445 41.471C39.6454 41.0701 39.8645 40.541 39.8645 39.9744V38.3496C39.8645 37.7857 39.6454 37.2539 39.2445 36.853L38.3145 35.9551L38.7635 35.5061C39.1643 35.1053 39.3835 34.5761 39.3835 34.0096C39.3835 33.4457 39.1643 32.9139 38.7635 32.513L38.1488 31.9304L39.461 30.6209C39.8592 30.22 40.081 29.6909 40.081 29.1244L40.097 27.3686C44.5947 25.6475 47.6171 21.2541 47.6171 16.438C47.6171 15.6684 47.5289 14.9201 47.3846 14.1852C48.2986 12.7901 48.801 11.1921 48.801 9.50845L48.801 9.51131Z" fill="#ee8b17"/>
<path d="M42.3523 12.2533C42.208 9.70646 41.3047 7.28528 39.8162 5.24907C37.6355 5.45752 35.9171 7.27741 35.9171 9.51161C35.9171 10.137 36.0481 10.7383 36.3046 11.2995C37.0422 12.9056 36.334 14.8137 34.7279 15.5513C34.3057 15.7464 33.8567 15.8453 33.3917 15.8453C32.1437 15.8453 30.9999 15.113 30.4734 13.9745C29.8294 12.5688 29.5006 11.0669 29.5006 9.51161C29.5006 5.94395 31.2591 2.78513 33.9502 0.836695C29.7812 -0.617105 24.6398 -0.0665765 21.2587 2.5257C16.5766 6.11745 14.8609 12.2562 16.9534 17.7157L1.04714 33.6192C0.648947 34.0174 0.42981 34.5466 0.42981 35.1131V39.2421C0.42981 40.4072 1.37851 41.3587 2.54641 41.3587H5.85484C6.41338 41.3587 6.95857 41.1315 7.34874 40.7387L9.01099 39.0791C9.40918 38.6782 9.631 38.149 9.631 37.5825L9.60962 35.6397H11.8518C12.4156 35.6397 12.9475 35.4205 13.3483 35.0197L14.7353 33.6327C15.1308 33.2372 15.3553 32.6947 15.3553 32.1362L15.3339 30.4632H16.3388C17.5066 30.4632 18.4554 29.5145 18.4554 28.3466L18.434 27.096H20.7403C21.3042 27.096 21.836 26.8768 22.2368 26.476L23.7628 24.9634C28.7335 27.2296 34.6639 26.158 38.5225 22.2963C41.1682 19.6506 42.5659 15.9894 42.3548 12.2477L42.3523 12.2533Z" fill="#ee8b17"/>
</svg>
