<svg width="47" height="47" viewBox="0 0 47 47" fill="none" xmlns="http://www.w3.org/2000/svg">
<path d="M16.0338 18.6974C16.0338 18.6974 16.1992 20.7869 16.6546 22.5309C17.0811 24.1635 19.691 27.8809 22.9096 27.9955C23.1045 28.0024 23.8246 27.9997 23.9844 27.9982C27.2518 27.964 29.9152 24.1825 30.3462 22.5315C30.8016 20.7874 30.967 18.6979 30.967 18.6979C31.4861 18.8724 32.1842 18.7967 32.4285 18.1568C32.7404 17.3403 33.3551 13.0293 32.7303 12.5419C32.5801 12.4246 32.3919 12.4015 32.1929 12.4309C32.0677 7.50998 33.1643 4.86733 29.2379 3.281C28.7535 0.0031909 24.4627 0.109928 23.5991 0.0105523C23.589 0.00476852 23.2831 -0.000489437 23.2495 3.63596e-05C13.0483 0.301843 14.9316 7.55993 14.8079 12.4299C14.609 12.4004 14.4207 12.4235 14.2701 12.5408C13.6447 13.0282 14.2594 17.3387 14.5718 18.1558C14.8171 18.7957 15.5153 18.8714 16.0338 18.6974Z" fill="#FFD93B"/>
<path d="M23.4723 43H23.5289C24.7715 41.2961 25.9806 39.0862 27 36.8762C26.4832 34.9948 25.6548 33.3608 25.194 32.5338C25.5906 31.9028 26.4956 31.2391 26.6683 30.6351C26.8492 30.004 26.4685 29.5755 25.8905 29.174C25.6513 29.0082 25.2612 28.9424 24.9866 29.0587L23.9985 29.4434C23.7233 29.5602 23.2773 29.5602 23.0021 29.4434L22.014 29.0592C21.7394 28.9424 21.3499 29.0082 21.1101 29.1745C20.5315 29.576 20.1508 30.0045 20.3311 30.6356C20.5038 31.2396 21.41 31.9033 21.806 32.5344C21.3452 33.3618 20.5168 34.9943 20 36.8757C21.0205 39.0851 22.229 41.2961 23.4723 43Z" fill="#D91920"/>
<path d="M46.9834 45.2279L45.412 35.6517C45.0956 34.3708 43.8406 32.9516 42.6222 32.4983L34.6386 29.3801C34.6386 29.3801 33.2786 28.7752 32.8683 28.426L31.513 27.27C31.1022 26.9208 30.5292 26.8359 30.5235 27.4702V27.5386C30.8241 29.7175 27.039 41.2314 23.5262 45.1595L23.4743 45.1579C19.961 41.2281 16.1775 29.7175 16.4786 27.5386L16.4781 27.4702C16.4718 26.8359 15.8988 26.9208 15.4885 27.27L14.1333 28.426C13.7219 28.7752 12.3625 29.3801 12.3625 29.3801H12.3619L4.37828 32.4983C3.15944 32.9521 1.90438 34.3708 1.58852 35.6517L0.016557 45.2279C-0.116189 46.2066 0.563806 47 1.535 47H45.4655C46.4362 47 47.1162 46.2066 46.9834 45.2279Z" fill="#FFD93B"/>
</svg>
