<svg width="57" height="52" viewBox="0 0 57 52" fill="none" xmlns="http://www.w3.org/2000/svg">
<path d="M28.5955 14.9256C28.5955 16.855 27.0266 18.4261 25.095 18.4261C23.1656 18.4261 21.5945 16.8572 21.5945 14.9256C21.5945 12.9962 23.1634 11.4251 25.095 11.4251C27.0244 11.4251 28.5955 12.994 28.5955 14.9256ZM36.4976 21.3927C34.5771 21.8133 32.6099 22.1471 30.6651 22.3719L29.0184 22.5566V22.8548L9.1772 22.8526C8.85452 21.7265 7.96439 20.8208 6.83611 20.5004V9.34244C7.96216 9.01976 8.85453 8.12962 9.1772 7.00135H41.0064C41.3291 8.1274 42.2325 9.01976 43.3586 9.34244V19.4231L43.2963 19.4476C41.0798 20.2287 38.7877 20.8853 36.4976 21.3927ZM14.7628 14.9279C14.7628 14.1112 14.1063 13.4547 13.2896 13.4547C12.4729 13.4547 11.8165 14.1112 11.8165 14.9279C11.8165 15.7446 12.4729 16.401 13.2896 16.401C14.1063 16.401 14.7628 15.7446 14.7628 14.9279ZM30.4538 14.9279C30.4538 11.9682 28.0504 9.56476 25.0907 9.56476C22.1421 9.56476 19.7409 11.9682 19.7409 14.9279C19.7409 17.8765 22.1443 20.2776 25.0907 20.2776C28.0504 20.2776 30.4538 17.8742 30.4538 14.9279ZM36.905 16.401C37.7217 16.401 38.3781 15.7446 38.3781 14.9279C38.3781 14.1112 37.7217 13.4547 36.905 13.4547C36.0883 13.4547 35.4318 14.1112 35.4318 14.9279C35.4318 15.7446 36.0883 16.401 36.905 16.401ZM7.4548 23.7825C7.4548 22.928 6.76046 22.2337 5.90592 22.2337C5.38519 22.2337 4.97795 21.8131 4.97795 21.3057V8.54974C4.97795 8.02901 5.38742 7.62177 5.90592 7.62177C6.76046 7.62177 7.4548 6.92743 7.4548 6.07289C7.4548 5.55216 7.86426 5.14492 8.38277 5.14492H41.8099C42.3173 5.14492 42.7379 5.55439 42.7379 6.07289C42.7379 6.92743 43.4322 7.62177 44.2868 7.62177C44.7942 7.62177 45.2148 8.03123 45.2148 8.54974V19.6718C46.8504 20.2281 48.5082 20.7244 50.1929 21.1205L50.1951 2.64091C50.1951 1.26562 49.0802 0.164062 47.7183 0.164062H2.47684C1.11494 0.164062 0 1.26562 0 2.64091V27.2111C0 28.573 1.11488 29.6879 2.47684 29.6879H29.0165V24.7098H8.38511C7.86437 24.7098 7.45714 24.2892 7.45714 23.7818L7.4548 23.7825ZM56.9689 24.2165V34.2351C56.9689 40.9711 53.0434 47.1021 46.9258 49.926L43.9172 51.3124L40.9085 49.926C34.7912 47.1021 30.8768 40.9711 30.8768 34.2351V24.2165C32.7217 24.0051 34.74 23.6846 36.8962 23.2128C39.5087 22.6298 41.8632 21.9244 43.9171 21.1944C45.9844 21.9243 48.3255 22.632 50.9516 23.2128C53.1057 23.6824 55.1241 24.0051 56.9709 24.2165H56.9689ZM48.7084 33.0957C48.3501 32.724 47.7537 32.724 47.3954 33.0957L43.036 37.4551L41.1778 35.597C40.8195 35.2387 40.2253 35.2387 39.8648 35.597C39.5066 35.9686 39.5066 36.5494 39.8648 36.9099L42.3795 39.4246C42.5531 39.6093 42.8001 39.6961 43.036 39.6961C43.2719 39.6961 43.5055 39.6093 43.6924 39.4246L48.7084 34.4086C49.0667 34.037 49.0667 33.4539 48.7084 33.0957Z" fill="#ee8b17"/>
</svg>
