<svg width="64" height="51" viewBox="0 0 64 51" fill="none" xmlns="http://www.w3.org/2000/svg">
<path d="M26.1272 28.9081H23.2703C23.545 33.0972 25.3333 37.0416 28.3 40.0085C31.2667 42.9754 35.2114 44.7635 39.4005 45.0382H39.4993C39.4334 44.8981 39.4005 44.7443 39.4005 44.5877V42.1924C35.9695 41.9204 32.7473 40.4343 30.3134 37.9977C27.8796 35.5639 26.3964 32.3392 26.1272 28.9081Z" fill="#36A342"/>
<path d="M57.7394 28.9081H54.8715C54.6078 32.3418 53.1272 35.5695 50.6906 38.0064C48.2568 40.443 45.0318 41.9264 41.5979 42.1928V44.5881C41.5979 44.7447 41.5649 44.8986 41.499 45.0386H41.5979C45.787 44.7667 49.7342 42.9784 52.704 40.0117C55.6735 37.0449 57.4646 33.0972 57.7394 28.9081Z" fill="#36A342"/>
<path d="M41.5981 10.5806V13.4484C45.0291 13.7121 48.254 15.1928 50.6881 17.6238C53.1219 20.0576 54.6052 23.2799 54.8717 26.7109H57.7395C57.4648 22.5218 55.6765 18.5746 52.7071 15.6048C49.7376 12.6381 45.7874 10.8525 41.5981 10.5806Z" fill="#36A342"/>
<path d="M36.2909 11.075C34.2389 11.5804 32.2996 12.4677 30.5772 13.6901C30.5772 13.6956 30.5717 13.7011 30.5662 13.7011C26.3002 16.7201 23.6191 21.4971 23.2703 26.7108H26.1271C26.4952 21.9365 29.2147 17.6568 33.3788 15.2946C33.5766 15.1848 33.7744 15.0749 33.9831 14.976C34.1837 14.8661 34.3869 14.7672 34.5985 14.6793C34.8072 14.5804 35.016 14.4925 35.2248 14.4156C35.4335 14.3277 35.6451 14.2508 35.8621 14.1849C36.0599 14.1189 36.2686 14.053 36.4774 13.9981C36.6862 13.9431 36.8949 13.8772 37.1037 13.8332C37.1119 13.825 37.1257 13.8195 37.1367 13.8223C37.3674 13.7673 37.5872 13.7124 37.8179 13.6794C38.0487 13.6465 38.2464 13.6025 38.4662 13.5695H38.4992C38.631 13.5476 38.7629 13.5366 38.8947 13.5146C39.0596 13.4926 39.2354 13.4816 39.4002 13.4707V10.5808C38.3645 10.6467 37.3399 10.8061 36.3345 11.0643C36.318 11.0615 36.3047 11.0667 36.2909 11.075Z" fill="#36A342"/>
<path d="M37.4449 16.0081C36.4038 16.269 35.4012 16.6728 34.4672 17.2057C30.6736 19.3594 28.3167 23.3699 28.2809 27.7323V27.9081C28.3112 31.1111 29.5968 34.1768 31.8602 36.4432C34.1238 38.7122 37.1866 40.0005 40.3897 40.039H40.4007C40.4666 40.0253 40.5325 40.0253 40.5984 40.039H40.6094C44.8673 39.9951 48.7957 37.7426 50.9764 34.0863C53.1603 30.4329 53.2866 25.9057 51.306 22.1371C49.3255 18.3682 45.5264 15.9014 41.2794 15.624H41.2575C41.1256 15.613 40.9937 15.613 40.8729 15.613C40.752 15.613 40.6311 15.6021 40.5103 15.6021C40.2795 15.6021 40.0598 15.613 39.829 15.635C39.2934 15.6515 38.7605 15.7174 38.2358 15.8328C37.9721 15.8877 37.7086 15.9421 37.4449 16.0081ZM40.4996 18.2166C44.3564 18.2111 47.8399 20.5186 49.3335 24.0732C49.4489 24.3424 49.4544 24.6445 49.3445 24.9137C49.2346 25.1857 49.0204 25.3999 48.7512 25.5126C48.6166 25.573 48.471 25.6032 48.3226 25.6005C47.8804 25.6005 47.4848 25.3368 47.3117 24.9302C46.1608 22.1887 43.4742 20.4087 40.4992 20.4142C39.8921 20.4142 39.4004 19.9224 39.4004 19.3154C39.4004 18.7083 39.8925 18.2166 40.4996 18.2166Z" fill="#36A342"/>
<path d="M40.5103 8.35C40.8729 8.35 41.2354 8.36099 41.5981 8.38297V5.77885C41.5981 5.17176 41.1064 4.68005 40.4993 4.68005C39.8922 4.68005 39.4005 5.17176 39.4005 5.77885V8.38297C39.7631 8.36099 40.1367 8.35 40.4993 8.35H40.5103Z" fill="#36A342"/>
<path d="M41.5982 13.4702V13.4482C41.5322 13.4373 41.4553 13.4373 41.3894 13.4263C41.4608 13.4345 41.5295 13.4482 41.5982 13.4702Z" fill="#36A342"/>
<path d="M40.4998 50.9501C40.791 50.9501 41.0711 50.8347 41.2772 50.6287C41.4832 50.4226 41.5986 50.1424 41.5986 49.8512V47.2361C41.236 47.2581 40.8734 47.269 40.5108 47.269C40.1372 47.269 39.7636 47.2581 39.401 47.2361V49.8512C39.401 50.1424 39.5164 50.4226 39.7224 50.6287C39.9284 50.8347 40.2086 50.9501 40.4998 50.9501Z" fill="#36A342"/>
<path d="M62.5409 26.7106H59.9368C59.9588 27.0732 59.9698 27.4357 59.9698 27.8094C59.9698 28.183 59.9588 28.5456 59.9368 28.9082H62.5409C63.148 28.9082 63.6397 28.4164 63.6397 27.8094C63.6397 27.2023 63.148 26.7106 62.5409 26.7106Z" fill="#36A342"/>
<path d="M6.52472 22.425V43.4887H28.9844C24.3036 40.0523 21.4001 34.7069 21.0731 28.908H18.4579C17.8508 28.908 17.3591 28.4163 17.3591 27.8092C17.3591 27.2022 17.8508 26.7105 18.4579 26.7105H21.0731C21.3862 21.2659 23.9684 16.2035 28.1932 12.7556L22.974 8.25061L6.52472 22.425Z" fill="#36A342"/>
<path d="M2.93196 22.6121L4.64607 21.1396C4.69552 21.0875 4.75046 21.038 4.81089 20.9968L22.2488 5.96533C22.6636 5.61372 23.2734 5.61372 23.6882 5.96533L30.0173 11.4263C31.2122 10.6516 32.4923 10.0144 33.8301 9.52542L22.9737 0.164062L15.2164 6.83375C15.2164 6.84474 15.2054 6.84474 15.1944 6.85572C15.1422 6.91341 15.0818 6.9656 15.0186 7.00956L7.8654 13.1738L7.70057 13.3056L0.360291 19.6347L2.93196 22.6121Z" fill="#36A342"/>
<path d="M13.3045 5.58065V3.43799H8.1842V9.99776L13.3045 5.58065Z" fill="#36A342"/>
</svg>
