<svg width="53" height="52" viewBox="0 0 53 52" fill="none" xmlns="http://www.w3.org/2000/svg">
<path fill-rule="evenodd" clip-rule="evenodd" d="M31 2V6.35657C31 7.32426 31.4328 8.25116 32.2001 8.93322C32.9674 9.61721 34.0102 10 35.0989 10H40L31 2Z" fill="#36A342"/>
<path fill-rule="evenodd" clip-rule="evenodd" d="M42 14.8713V23.6561C42 24.3893 41.3934 24.9624 40.6563 24.9602H40.6433C32.3948 24.9602 25.6941 31.6234 25.6941 39.8307C25.6941 43.6674 27.1573 47.1711 29.5597 49.8092C30.3294 50.6526 29.7445 52 28.5987 52H4.08084C1.82842 52 0 50.1834 0 47.9406V4.05937C0 2.98451 0.426129 1.94857 1.19576 1.18946C1.95888 0.423875 2.99813 0 4.08084 0H27.0509C27.801 0 28.4141 0.609902 28.4141 1.356V6.70001C28.4141 7.46559 28.5184 8.23334 28.7728 8.95569C29.7838 11.8039 32.4102 13.519 35.208 13.519H40.639C40.9999 13.519 41.3477 13.6617 41.6 13.9126C41.8609 14.1656 42 14.5123 42 14.8713Z" fill="#36A342"/>
<path fill-rule="evenodd" clip-rule="evenodd" d="M40.7391 27.3902C47.5058 27.3902 53 32.8842 53 39.6511C53 46.4179 47.506 51.9119 40.7391 51.9119C33.9724 51.9119 28.4783 46.4179 28.4783 39.6511C28.4783 32.8842 33.9722 27.3902 40.7391 27.3902ZM45.7071 35.2929C46.0977 35.6834 46.0977 36.3166 45.7071 36.7071L42.4142 40L45.7071 43.2929C46.0977 43.6834 46.0977 44.3166 45.7071 44.7071C45.3166 45.0976 44.6834 45.0976 44.2929 44.7071L41 41.4142L37.7071 44.7071C37.3166 45.0976 36.6834 45.0976 36.2929 44.7071C35.9024 44.3166 35.9024 43.6834 36.2929 43.2929L39.5858 40L36.2929 36.7071C35.9024 36.3166 35.9024 35.6834 36.2929 35.2929C36.6834 34.9024 37.3166 34.9024 37.7071 35.2929L41 38.5858L44.2929 35.2929C44.6834 34.9024 45.3166 34.9024 45.7071 35.2929Z" fill="#36A342"/>
</svg>
