<svg width="48" height="48" viewBox="0 0 48 48" fill="none" xmlns="http://www.w3.org/2000/svg">
<path fill-rule="evenodd" clip-rule="evenodd" d="M15.0249 24.6289V20.6598C15.0249 20.3134 15.3045 20.0337 15.6509 20.0337H20.6592C21.0056 20.0337 21.2852 20.3133 21.2852 20.6598V26.6051L19.4593 25.5513C18.4117 24.9482 17.2243 24.6289 16.0161 24.6289H15.0228H15.0249ZM26.7108 29.7374V14.8208C26.7108 14.4744 26.9904 14.1948 27.3368 14.1948H32.345C32.6914 14.1948 32.9711 14.4744 32.9711 14.8208V34.4033L32.3972 34.7351C32.0425 33.4705 31.2119 32.3374 29.9849 31.6299L26.7129 29.7393L26.7108 29.7374ZM38.3966 31.2691V8.97383C38.3966 8.62951 38.6763 8.34778 39.0227 8.34778H44.0309C44.3773 8.34778 44.6569 8.62741 44.6569 8.97383V28.5232C43.7743 28.4857 42.8706 28.6881 42.0485 29.1639L38.3967 31.2715L38.3966 31.2691ZM5.63427 23.377C6.90302 23.377 7.92972 24.4038 7.92972 25.6726V44.0365C7.92972 45.3032 6.90094 46.332 5.63427 46.332H2.29545C1.0267 46.332 0 45.3032 0 44.0365V25.6726C0 24.4038 1.02878 23.377 2.29545 23.377H5.63427ZM9.18175 25.8812H16.0159C17.0051 25.8812 17.9754 26.1421 18.833 26.6367L29.3564 32.7135C30.6544 33.4626 31.0989 35.1216 30.3498 36.4196C29.9908 37.0436 29.3982 37.4964 28.7033 37.6843C28.0084 37.87 27.2676 37.774 26.6457 37.413L19.9307 33.5357C19.6323 33.3625 19.2484 33.4647 19.0751 33.7652C18.9019 34.0636 19.0042 34.4455 19.3047 34.6208L26.0197 38.4981C26.9295 39.024 28.0126 39.1659 29.0288 38.8946C30.045 38.6213 30.911 37.9577 31.4369 37.0457C31.5183 36.9059 31.5913 36.7598 31.6539 36.6138L42.6785 30.249C44.375 29.2682 46.5452 29.8504 47.5239 31.547C47.9955 32.3609 48.1228 33.3291 47.8787 34.239C47.6345 35.1489 47.0398 35.9231 46.2259 36.3926L28.8432 46.428C25.5482 48.3312 21.5374 48.5169 18.0815 46.9267L12.2159 44.2285C11.6421 43.9655 11.016 43.8278 10.3837 43.8278H9.18592V25.8811L9.18175 25.8812Z" fill="#FFD93B"/>
<path fill-rule="evenodd" clip-rule="evenodd" d="M36.0403 2.13743L26.2578 11.9201C26.0596 12.1184 25.7549 12.1601 25.5108 12.0245L18.4116 8.08041L12.0679 14.4243C11.8237 14.6685 11.4272 14.6685 11.1831 14.4243C10.939 14.1802 10.939 13.7837 11.1831 13.5395L17.8607 6.86174C18.059 6.66349 18.3637 6.62175 18.6078 6.7574L25.7069 10.7015L35.156 1.25211H31.9445C31.5981 1.25211 31.3185 0.97248 31.3185 0.626057C31.3185 0.279634 31.5981 0 31.9445 0H36.6668C36.8338 0 36.9924 0.0646892 37.1092 0.183639C37.2261 0.300501 37.2929 0.459096 37.2929 0.626041V5.34847C37.2929 5.69488 37.0132 5.97453 36.6668 5.97453C36.3204 5.97453 36.0408 5.6949 36.0408 5.34847L36.0403 2.13743Z" fill="#D91920"/>
</svg>
