<svg width="42" height="43" viewBox="0 0 42 43" fill="none" xmlns="http://www.w3.org/2000/svg">
<path d="M40.7445 0.206014C40.3174 -0.114792 39.7321 -0.0606307 39.4112 0.366417L19.8918 25.1644L10.1864 16.3128C9.70731 15.8858 9.01363 15.8337 8.48034 16.2066C7.84082 16.6336 7.6804 17.4856 8.10745 18.1273L17.7067 32.5261C17.9733 32.899 18.3462 33.2719 18.7732 33.4864C20.3189 34.3926 22.2396 33.8593 23.1458 32.3136L23.252 32.1532L41.0628 1.4347C41.2232 1.00557 41.1715 0.472659 40.7445 0.206014Z" fill="#D91920"/>
<path d="M20.3735 37.324C19.2007 37.324 18.0799 37.0032 17.0133 36.4178C16.1592 35.9387 15.4135 35.1908 14.826 34.3909L5.17238 19.9921C4.47868 18.9255 4.21204 17.6465 4.42663 16.3653C4.69328 15.0863 5.38698 14.0197 6.50561 13.2718C7.30554 12.7385 8.21171 12.4719 9.22624 12.4719C10.4532 12.4719 11.5719 12.8989 12.4802 13.7509L19.4673 20.1504L31.6786 4.57886H31.3057L6.82664 4.58094C3.09361 4.58094 0 7.62026 0 11.4076V35.8845C0 39.6717 3.03932 42.7111 6.82664 42.7111H31.3036C35.0366 42.7111 38.1302 39.6718 38.1302 35.8845V13.272L26.1856 33.858C24.9065 36.0453 22.7189 37.324 20.3735 37.324Z" fill="#FFD93B"/>
</svg>
