<svg width="57" height="50" viewBox="0 0 57 50" fill="none" xmlns="http://www.w3.org/2000/svg">
<path d="M29.0837 6.19989C27.9387 6.06763 26.7634 6 25.5699 6C20.6049 6 15.9559 7.17055 12.4797 9.29597C9.20459 11.2983 7.40088 13.8924 7.40088 16.6C7.40088 19.3077 9.20459 21.9016 12.4797 23.9041C15.9559 26.0295 20.6049 27.1998 25.5699 27.1998C29.1101 27.1998 32.4896 26.6049 35.3977 25.4931C30.9495 22.6512 28 17.67 28 12C28 9.95425 28.384 7.99817 29.0837 6.19989Z" fill="#36A342"/>
<path d="M38.4441 27.009C37.5432 27.4585 36.5903 27.8572 35.5942 28.2029V32.2722C36.6902 31.841 37.7196 31.3383 38.6604 30.7628C38.9973 30.5569 39.3143 30.3434 39.6196 30.1256V27.393C39.2213 27.2798 38.8291 27.1516 38.4441 27.009Z" fill="#36A342"/>
<path d="M40.493 27.6145V29.451C41.0892 28.9509 41.6079 28.4261 42.0453 27.8818C41.5195 27.8178 41.0017 27.7282 40.493 27.6145Z" fill="#36A342"/>
<path d="M25.7969 29.8162C27.1641 29.8071 28.5106 29.7151 29.8221 29.5446V33.761C28.5176 33.9457 27.1702 34.0457 25.7969 34.0555V29.8162Z" fill="#36A342"/>
<path d="M10.2273 25.5626V29.0845C8.38953 27.4 7.40088 25.4608 7.40088 23.459V23.0844C8.17993 23.9711 9.12561 24.8022 10.2273 25.5626Z" fill="#36A342"/>
<path d="M20.0248 29.3482V33.5488C18.614 33.2818 17.2637 32.9131 15.9994 32.4472V28.3593C17.2806 28.7777 18.6295 29.1072 20.0248 29.3482Z" fill="#36A342"/>
<path d="M20.8982 29.4868C22.208 29.675 23.5544 29.7837 24.9235 29.8099V34.0494C23.548 34.021 22.2001 33.9038 20.8982 33.6997V29.4868Z" fill="#36A342"/>
<path d="M30.6956 33.6237V29.4196C32.089 29.1986 33.4359 28.8858 34.7209 28.4892V32.5946C33.4519 33.0345 32.103 33.3796 30.6956 33.6237Z" fill="#36A342"/>
<path d="M15.1261 28.0569V32.1028C14.187 31.7104 13.2997 31.2643 12.4797 30.7628C11.9845 30.4602 11.5276 30.1424 11.1007 29.8145V26.1315L11.1067 26.1353L11.1127 26.1389C12.3358 26.8868 13.684 27.5282 15.1261 28.0569Z" fill="#36A342"/>
<path d="M18.1691 38.1922C13.204 38.1922 8.55481 37.0216 5.07861 34.8962C1.80347 32.8939 0 30.3 0 27.5921C0 24.969 1.69714 22.4541 4.78076 20.4789V23.459C4.78076 27.1136 7.02954 30.5013 11.1127 32.9978C14.9949 35.3714 20.1292 36.6784 25.5699 36.6784C26.2698 36.6784 26.9641 36.6562 27.6516 36.6134C24.8226 37.6425 21.5702 38.1922 18.1691 38.1922Z" fill="#36A342"/>
<path d="M17.5226 40.8022V45.0415C16.147 45.0133 14.7992 44.8959 13.4972 44.692V40.4789C14.807 40.6671 16.1536 40.776 17.5226 40.8022Z" fill="#36A342"/>
<path d="M27.3199 39.4813V43.5867C26.051 44.0266 24.7019 44.3719 23.2944 44.616V40.4119C24.6879 40.1907 26.0348 39.8779 27.3199 39.4813Z" fill="#36A342"/>
<path d="M22.421 44.7533C21.1167 44.938 19.7693 45.0378 18.396 45.0478V40.8083C19.7632 40.7992 21.1095 40.7075 22.421 40.537V44.7533Z" fill="#36A342"/>
<path d="M33.092 36.8365C33.8875 36.3187 34.6074 35.7655 35.2489 35.1822C35.6135 35.0612 35.9707 34.9315 36.324 34.7966C36.2087 36.8223 35.0851 38.7713 33.092 40.4431V36.8365Z" fill="#36A342"/>
<path d="M28.1934 39.1953C29.6342 38.6951 30.9851 38.0839 32.2188 37.3687V41.1179C31.9132 41.3355 31.5962 41.5493 31.2595 41.7551C30.3185 42.3304 29.2892 42.8331 28.1934 43.2643V39.1953Z" fill="#36A342"/>
<path d="M12.6239 40.3405V44.5409C11.2129 44.2739 9.86267 43.9054 8.59851 43.4396V39.3514C9.87952 39.7699 11.2286 40.0993 12.6239 40.3405Z" fill="#36A342"/>
<path d="M2.82642 36.5547V40.0768C0.988403 38.3921 0 36.4532 0 34.4511V34.0764C0.779053 34.9634 1.72449 35.7943 2.82642 36.5547Z" fill="#36A342"/>
<path d="M7.7251 39.049V43.0948C6.78589 42.7026 5.89868 42.2563 5.07861 41.7551C4.58362 41.4523 4.12646 41.1347 3.69983 40.8066V37.1236L3.71179 37.1312C4.93494 37.8789 6.28284 38.5205 7.7251 39.049Z" fill="#36A342"/>
<path d="M38.9585 33.603C39.3231 33.4089 39.682 33.2091 40.0275 32.9978C42.0675 31.7506 43.6495 30.2808 44.722 28.6664C45.5594 29.8891 46 31.1964 46 32.5315C46 35.2394 44.1963 37.8333 40.9211 39.8356C39.2004 40.8878 37.1917 41.7049 35.0001 42.2629C37.5718 40.0248 38.9585 37.3205 38.9585 34.4511V33.603Z" fill="#36A342"/>
<path d="M23.1588 47.294C24.5514 47.0792 25.8979 46.7718 27.1842 46.3823V49.9809C25.8086 49.9525 24.4608 49.8353 23.1588 49.6311V47.294Z" fill="#36A342"/>
<path d="M29.087 45.725C30.1014 45.6873 31.1017 45.6039 32.0826 45.4763V49.6927C30.7783 49.8772 29.4309 49.9771 28.0576 49.987V46.1014C28.2437 46.0379 28.4281 45.9725 28.6111 45.9053C28.7709 45.8466 28.9296 45.7865 29.087 45.725Z" fill="#36A342"/>
<path d="M18.2601 47.6695C19.6267 47.6657 20.9733 47.5793 22.2855 47.4145V49.4803C20.8745 49.2133 19.5243 48.8446 18.2601 48.3787V47.6695Z" fill="#36A342"/>
<path d="M41.8804 42.3081V46.0573C41.5748 46.2749 41.2578 46.4886 40.9211 46.6945C39.9801 47.2697 38.9508 47.7725 37.855 48.2036V44.1346C39.2958 43.6343 40.6467 43.0233 41.8804 42.3081Z" fill="#36A342"/>
<path d="M32.9561 45.3513C34.3495 45.1301 35.6964 44.8173 36.9816 44.4206V48.5261C35.7126 48.966 34.3635 49.3111 32.9561 49.5552V45.3513Z" fill="#36A342"/>
<path d="M42.7537 45.3827C44.86 43.6158 46 41.5397 46 39.3904V39.0158C45.1235 40.0135 44.0369 40.9406 42.7537 41.7759V45.3827Z" fill="#36A342"/>
<path fill-rule="evenodd" clip-rule="evenodd" d="M44.2608 0C51.0276 0 56.5217 5.49398 56.5217 12.2609C56.5217 19.0277 51.0277 24.5217 44.2608 24.5217C37.4941 24.5217 32 19.0277 32 12.2609C32 5.49398 37.494 0 44.2608 0ZM49.2288 7.90267C49.6194 8.29319 49.6194 8.92635 49.2288 9.31688L45.9359 12.6098L49.2288 15.9027C49.6194 16.2932 49.6194 16.9264 49.2288 17.3169C48.8383 17.7074 48.2051 17.7074 47.8146 17.3169L44.5217 14.024L41.2288 17.3169C40.8383 17.7074 40.2051 17.7074 39.8146 17.3169C39.4241 16.9264 39.4241 16.2932 39.8146 15.9027L43.1075 12.6098L39.8146 9.31688C39.4241 8.92635 39.4241 8.29319 39.8146 7.90267C40.2051 7.51214 40.8383 7.51214 41.2288 7.90267L44.5217 11.1956L47.8146 7.90267C48.2051 7.51214 48.8383 7.51214 49.2288 7.90267Z" fill="#36A342"/>
</svg>
