<svg width="54" height="46" viewBox="0 0 54 46" fill="none" xmlns="http://www.w3.org/2000/svg">
<g opacity="0.5">
<path d="M43.7685 19.6761C44.55 19.6761 45.1828 20.3118 45.1828 21.097V22.5874C45.1828 23.3622 45.7983 23.991 46.5625 24.0119C47.8454 24.0153 47.8523 24.0153 47.8523 24.0153C48.6338 24.0153 49.2667 24.6511 49.2667 25.4328V31.4639C49.2667 32.249 48.6339 32.8848 47.8523 32.8848C47.0708 32.8848 46.438 32.2491 46.438 31.4639V26.8537L46.4414 26.8502C44.173 26.7668 42.3541 24.8908 42.3541 22.5874V22.5145H29.8122C29.0307 22.5145 28.3978 21.8787 28.3978 21.097C28.3978 20.3119 29.0272 19.676 29.8052 19.676L29.8086 19.6795L29.8121 19.676L43.7685 19.6761ZM17.8931 28.1113C19.2071 28.1113 20.2722 29.1813 20.2722 30.498V30.5015C20.2722 31.8217 19.2071 32.8917 17.8931 32.8917C16.5791 32.8917 15.514 31.8217 15.514 30.5015V30.498C15.514 29.1813 16.5791 28.1113 17.8931 28.1113ZM42.1087 28.1113C43.4227 28.1113 44.4877 29.1813 44.4877 30.498V30.5015C44.4877 31.8217 43.4227 32.8917 42.1087 32.8917C40.7946 32.8917 39.7296 31.8217 39.7296 30.5015V30.498C39.7296 29.1813 40.7946 28.1113 42.1087 28.1113ZM30.0022 24.9012V24.9046C33.0798 24.9012 35.573 27.4095 35.573 30.498V30.5015C35.573 33.5935 33.0798 36.0983 30.0022 36.0983C26.9246 36.0983 24.4314 33.5935 24.4314 30.5015V30.498C24.4314 27.4095 26.9246 24.9012 30.0022 24.9012ZM12.1488 28.1147C12.9303 28.1147 13.5632 28.7505 13.5632 29.5357V34.1493H13.5597C15.8316 34.2327 17.647 36.1087 17.647 38.4121V38.4851H30.1925C30.9706 38.4851 31.6069 39.1208 31.6069 39.906C31.6069 40.6877 30.9741 41.3235 30.1925 41.327H16.2324C15.4509 41.327 14.8181 40.6877 14.8181 39.906V38.4121C14.8181 37.6374 14.206 37.0086 13.4383 36.9877H12.1486C11.3705 36.9877 10.7377 36.3519 10.7377 35.5668V29.5357C10.7377 28.7506 11.3707 28.1147 12.1488 28.1147ZM49.7571 15H10.2429C7.90192 15.0035 6.00345 16.9107 6 19.2662V41.7372C6.00346 44.0892 7.90183 45.9965 10.2429 46H49.7571C52.1015 45.9965 54 44.0893 54 41.7338V19.2663C54 16.9109 52.1016 15.0035 49.7571 15Z" fill="#FFD93B"/>
<path d="M42.6832 0C42.3213 0 41.9489 0.0495144 41.5799 0.148542L3.16708 10.6071V10.6106C0.887416 11.2331 -0.462955 13.6098 0.146119 15.9264L1.72619 21.9213C1.88629 22.5438 2.43966 23 3.10097 23C3.88753 23 4.52449 22.3528 4.52449 21.5534V21.5499H4.52797V18.7451C4.52797 15.6858 6.9468 13.2065 9.94344 13.1641H42.0713C41.8103 13.0686 41.5806 12.9023 41.41 12.6901L41.3996 12.6866C41.0898 12.7573 40.7836 12.7891 40.4772 12.7891C38.5909 12.7891 36.8646 11.5088 36.3495 9.57065L36.3321 9.49991L24.1364 12.821C24.0145 12.8528 23.8893 12.8705 23.7674 12.8705C23.141 12.8705 22.5632 12.4426 22.3927 11.7953C22.1908 11.0278 22.6398 10.2356 23.395 10.0305H23.3985L23.402 10.0269H23.3985L36.9717 6.33101C37.09 6.29918 37.2084 6.2815 37.3232 6.2815H37.3406C37.9671 6.2815 38.5414 6.70591 38.7119 7.35315L39.0982 8.82093C39.2688 9.46816 39.8465 9.89612 40.4765 9.89612C40.5879 9.89612 40.6992 9.88197 40.8106 9.85368C42.0566 9.51768 42.0635 9.51768 42.0635 9.51768C42.1888 9.48232 42.3106 9.46817 42.4324 9.46817C43.0624 9.46817 43.6367 9.89258 43.8072 10.5398L44.0195 11.3462C44.0508 11.4665 44.0682 11.5973 44.0682 11.7282C44.0682 12.3896 43.6541 12.952 43.0728 13.1606L47.6183 13.1641C48.3874 13.1393 49 12.4992 49 11.7175V11.714C49 11.5866 48.9861 11.4629 48.9548 11.3461L46.8109 3.21855C46.2993 1.28041 44.5731 0 42.6832 0Z" fill="#D91920"/>
</g>
</svg>
