<svg width="78" height="38" viewBox="0 0 78 38" fill="none" xmlns="http://www.w3.org/2000/svg">
<path d="M40.3605 32.8877C38.8573 32.7875 37.124 32.524 35.7568 32.1281C35.5007 32.0538 34.4404 31.6641 34.1707 31.5404C29.4111 29.3357 26.0954 24.5229 26.0954 18.9393C26.0954 11.2809 32.326 5.0429 39.9893 5.0429C47.5846 5.0429 53.7732 11.1745 53.8796 18.7463H58.899C58.7926 8.40813 50.3535 0.0296922 39.9893 0.0296922C29.5633 0.0296922 21.0772 8.51082 21.0772 18.9393C21.0772 26.1288 25.1205 32.3817 31.0406 35.5762C32.1095 36.1416 33.6437 36.7243 34.1645 36.8839C35.8521 37.3862 37.9232 37.7203 39.7666 37.8601C40.3927 37.9071 42.5788 37.9319 43.216 37.9343H77.7814V32.9347H43.2742C42.8152 32.9347 40.8096 32.9174 40.3605 32.8877ZM43.2742 25.0376C42.9092 25.0376 41.0002 25.0252 40.6475 24.9955C40.05 24.9448 39.1839 24.8557 38.6272 24.7283C37.9987 24.56 37.4085 24.3373 37.1425 24.1913C35.278 23.183 34.0074 21.2109 34.0074 18.9393C34.0074 15.6347 36.6835 12.9549 39.9893 12.9549C43.2259 12.9549 45.8575 15.5296 45.9626 18.7463H50.7853C50.6839 12.8695 45.8934 8.13347 39.9893 8.13347C34.0198 8.13347 29.181 12.971 29.181 18.9393C29.181 23.1483 31.5936 26.7833 35.1073 28.5636C35.648 28.8804 36.6649 29.2119 36.9545 29.2874C37.9467 29.5485 39.2792 29.7266 40.3605 29.8058C40.7601 29.8392 42.7174 29.8541 43.1306 29.8565V29.864H77.7802V25.0376H43.2742ZM17.9842 37.9158H12.9314V5.05403H5.54768V-8.1157e-07H17.9842V37.9158ZM0 7.5792V12.439H5.54768V37.9158H10.4025V7.5792H0Z" fill="#FFD93B"/>
</svg>
