<svg width="52" height="52" viewBox="0 0 52 52" fill="none" xmlns="http://www.w3.org/2000/svg">
<path fill-rule="evenodd" clip-rule="evenodd" d="M47.2904 12.4199L46.4237 13.923L50.0688 16.0286L50.9399 14.5255C51.2401 14.0042 51.0596 13.3204 50.5359 13.0179L48.8003 12.0159C48.279 11.7157 47.5951 11.894 47.2927 12.4198L47.2904 12.4199ZM48.3557 28.5946C48.0691 29.0934 47.4304 29.2672 46.9293 28.9783C46.4305 28.6916 46.2567 28.0529 46.5456 27.5542L49.8318 21.8579C49.9898 21.5849 49.895 21.2192 49.6174 21.059L48.9132 20.6528L45.6857 26.2453C45.5638 26.4551 45.284 26.5319 45.0763 26.41L39.9305 23.4378C39.7183 23.3159 39.6461 23.0383 39.7657 22.8284L44.1984 15.1507C44.3203 14.9408 44.5979 14.8641 44.8078 14.9859L49.9514 17.9559C50.1636 18.08 50.2358 18.3599 50.1162 18.5675L49.9582 18.8406L50.6646 19.2491C51.9398 19.9848 52.38 21.6188 51.6419 22.8984L48.3557 28.5946ZM36.8653 45.5366C37.3438 45.5366 37.732 45.9247 37.732 46.4032C37.732 46.8816 37.3438 47.2698 36.8653 47.2698H26.7113C26.2329 47.2698 25.8447 46.8816 25.8447 46.4032C25.8447 45.9247 26.2329 45.5366 26.7113 45.5366H36.8653ZM15.485 45.5366C15.9635 45.5366 16.3517 45.9247 16.3517 46.4032C16.3517 46.8816 15.9635 47.2698 15.485 47.2698L5.33099 47.2721C4.85251 47.2721 4.46431 46.8839 4.46431 46.4054C4.46431 45.927 4.85251 45.5388 5.33099 45.5388H15.485V45.5366ZM11.6301 23.0043C12.1085 23.0043 12.4967 23.3925 12.4967 23.8709C12.4967 24.3494 12.1085 24.7375 11.6301 24.7375H5.33336C4.85488 24.7375 4.46668 24.3494 4.46668 23.8709C4.46668 23.3925 4.85488 23.0043 5.33336 23.0043H11.6301ZM36.4274 14.988C36.9059 14.988 37.2941 15.3762 37.2941 15.8546C37.2941 16.3331 36.9059 16.7212 36.4274 16.7212H26.9234C26.445 16.7212 26.0568 16.3331 26.0568 15.8546C26.0568 15.3762 26.445 14.988 26.9234 14.988H36.4274ZM5.33336 43.7582C4.82102 43.7582 4.41705 43.3204 4.47344 42.7878C4.64723 41.0997 4.70365 39.2152 6.06235 38.4343C6.94936 37.9243 8.02364 38.1613 8.54053 39.0617C9.02352 39.9035 8.91744 41.147 9.10703 41.815C9.72318 41.4178 10.2671 39.9148 11.4046 39.7342C12.5151 39.5582 13.2147 40.6573 13.8647 41.0342C14.3996 41.3433 15.1083 41.0522 15.4898 41.0522C16.5392 41.0522 16.7063 42.6298 15.5688 42.7809C14.7427 42.9299 13.9121 43.0585 12.9981 42.5304C12.6753 42.3431 12.4068 42.1107 12.1449 41.8827C11.8899 41.6593 11.7071 41.4359 11.6755 41.4404C11.6529 41.4449 11.4159 41.7609 11.1722 42.0858C10.7411 42.6613 10.3303 43.1962 9.66449 43.4648C8.76621 43.8259 7.89502 43.4422 7.53166 42.5417C7.21116 41.745 7.28565 40.3368 7.04415 39.9192C6.98773 39.8222 6.79814 40.0298 6.75526 40.0885C6.40543 40.5782 6.3016 41.754 6.20004 42.9344C6.17747 43.3925 5.7983 43.7559 5.33562 43.7559L5.33336 43.7582ZM29.2074 31.0229C29.6859 31.0229 30.0741 31.4111 30.0741 31.8895C30.0741 32.368 29.6859 32.7561 29.2074 32.7561H5.33336C4.85488 32.7561 4.46668 32.368 4.46668 31.8895C4.46668 31.4111 4.85488 31.0229 5.33336 31.0229H29.2074ZM14.894 24.7375C14.4155 24.7375 14.0273 24.3494 14.0273 23.8709C14.0273 23.3925 14.4155 23.0043 14.894 23.0043H33.286C33.7645 23.0043 34.1527 23.3925 34.1527 23.8709C34.1527 24.3494 33.7645 24.7375 33.286 24.7375H14.894ZM23.4342 14.988C23.9127 14.988 24.3009 15.3762 24.3009 15.8546C24.3009 16.3331 23.9127 16.7212 23.4342 16.7212L5.33336 16.7235C4.85488 16.7235 4.46668 16.3353 4.46668 15.8569C4.46668 15.3784 4.85488 14.9902 5.33336 14.9902H23.4342V14.988ZM5.33336 8.70264C4.85488 8.70264 4.46668 8.31446 4.46668 7.83601C4.46668 7.35756 4.85488 6.96938 5.33336 6.96938H21.0982C21.5767 6.96938 21.9649 7.35756 21.9649 7.83601C21.9649 8.31446 21.5767 8.70264 21.0982 8.70264L5.33336 8.70489V8.70264ZM37.9083 40.5511C37.827 40.7114 37.7187 40.822 37.5743 40.91L32.1147 44.4622C31.5211 44.8481 30.7447 44.39 30.7808 43.6949L31.1261 37.175C31.1329 36.9967 31.1735 36.8726 31.2706 36.7169L38.4091 24.3472C37.899 23.6611 37.829 22.7245 38.2714 21.9595L42.2008 15.1594V8.67526C42.2008 8.55339 42.194 8.43829 42.1805 8.32545H37.7253C35.6759 8.32545 33.9945 6.64183 33.9945 4.59041V0.0383663C33.8455 0.0112842 33.6875 0 33.525 0H1.79656C0.808032 0 0 0.805674 0 1.79195V50.208C0 51.1988 0.807974 52 1.79656 52H40.4018C41.3881 52 42.1984 51.1988 42.1984 50.208V33.1217L37.9079 40.5556L37.9083 40.5511ZM35.4821 40.2104L32.5954 42.0881L32.7782 38.6487L35.4821 40.2104ZM33.1687 36.877L36.8204 38.9849L43.465 27.4703L39.8132 25.3625L33.1687 36.877ZM35.7258 1.15817L41.1561 6.5881H37.721C36.6173 6.5881 35.7236 5.68537 35.7236 4.58631V1.15817H35.7258Z" fill="#36A342"/>
</svg>
