<svg width="65" height="47" viewBox="0 0 65 47" fill="none" xmlns="http://www.w3.org/2000/svg">
<path fill-rule="evenodd" clip-rule="evenodd" d="M0.00265333 31.9579L11 47L13.7085 45.0134C13.9965 44.8023 14.1688 44.4959 14.2193 44.1688C14.2698 43.8417 14.1955 43.4967 13.9876 43.2083L4.55569 30.3077C4.52896 30.275 4.50223 30.2393 4.47848 30.2036C4.27059 29.9419 3.97658 29.7843 3.66772 29.7367C3.35887 29.6891 3.02922 29.7516 2.75304 29.9389C2.7174 29.9657 2.68473 29.9925 2.64909 30.0163L0 31.9582L0.00265333 31.9579ZM37.7874 1.71297C36.7658 0.654276 35.3581 0 33.799 0C32.2398 0 30.8322 0.65426 29.8105 1.71297C28.78 2.78353 28.1415 4.26757 28.1415 5.90913C28.1415 7.55068 28.78 9.03472 29.8105 10.1053C30.8322 11.164 32.2398 11.8183 33.799 11.8183C35.3581 11.8183 36.7658 11.164 37.7874 10.1053C38.818 9.03472 39.4565 7.55068 39.4565 5.90913C39.4565 4.26757 38.818 2.78353 37.7874 1.71297ZM34.3395 25.9054C36.2164 25.8786 38.1022 25.7032 39.9999 25.379C41.6808 25.0935 43.3677 24.6891 45.0604 24.1656C44.7753 21.4504 43.531 19.0178 41.6719 17.2186C39.6346 15.2439 36.8579 14.0306 33.7962 14.0306C30.8799 14.0306 28.2249 15.1309 26.2172 16.942C24.4888 18.5003 23.2444 20.582 22.7307 22.9374C25.6411 22.9255 28.5041 23.4073 31.1386 24.5254C31.4534 24.6592 31.8662 24.8406 32.2908 25.031C32.9561 25.3284 33.657 25.6406 34.3341 25.9023L34.3395 25.9054ZM33.79 28.0496C34.3305 28.2518 34.8622 28.4272 35.37 28.5492C35.8481 28.6652 36.3678 28.7544 36.9202 28.8287C37.4399 28.9001 38.022 28.9596 38.6427 29.0191C40.1335 29.1588 41.5205 29.2272 42.9133 29.2927C43.7003 29.3313 44.4903 29.37 45.3812 29.4265C45.9366 29.4622 46.4741 29.5216 46.9582 29.599C47.4274 29.6733 47.8521 29.7685 48.2025 29.8726H48.2055L48.2025 29.8785C48.5292 29.9796 48.7816 30.0837 48.9687 30.1938C49.1172 30.283 49.2301 30.3781 49.3073 30.4792C49.3815 30.5714 49.4291 30.6725 49.4587 30.7766C49.4974 30.9075 49.5122 31.0651 49.5122 31.2435C49.5122 31.4339 49.4944 31.6242 49.4469 31.7967C49.3993 31.9692 49.3221 32.1476 49.1974 32.329C48.9064 32.7602 48.5054 33.1171 48.0481 33.3966C47.5195 33.7208 46.9225 33.9379 46.3345 34.0479C43.8488 34.5118 40.5731 34.4613 37.5557 34.4137C36.3945 34.3958 35.2719 34.378 34.2324 34.3899C33.6266 34.3958 33.1395 34.8954 33.1455 35.5051C33.1514 36.1147 33.6503 36.5995 34.2591 36.5935C35.2688 36.5816 36.3826 36.5995 37.5319 36.6173C40.6532 36.6649 44.0447 36.7184 46.7327 36.2158C47.5791 36.0582 48.4374 35.743 49.1947 35.279C49.9134 34.8389 50.5519 34.265 51.0271 33.5631C51.2854 33.1795 51.4607 32.778 51.5705 32.3735C51.6804 31.9721 51.722 31.5944 51.722 31.2405C51.722 30.8777 51.6775 30.5148 51.5735 30.1609C51.5201 29.9825 51.4547 29.81 51.3745 29.6435C52.9248 28.3885 54.8314 26.8659 56.6489 25.474C58.7575 23.8622 60.7027 22.4585 61.7125 21.9529C62.054 21.7834 62.6628 21.721 63.3044 21.7834C63.7172 21.825 64.124 21.9232 64.4596 22.0838C64.7031 22.1998 64.8873 22.3366 64.9615 22.4852C64.9942 22.5507 65.0061 22.631 64.9971 22.7351C64.8308 24.4034 62.3896 27.2435 59.1763 30.3125C53.3882 35.841 45.2124 41.8663 42.6609 43.7072C39.8396 45.7443 36.4005 44.5905 32.2429 43.1927C27.5892 41.6314 22.1161 39.7935 15.3299 41.3013L6.9821 29.8845C10.4063 27.779 14.5432 26.1433 18.7572 25.4653C19.6571 25.3196 20.5629 25.2215 21.4627 25.1679C21.4894 25.1679 21.5162 25.1649 21.5429 25.162C24.587 24.9984 27.5835 25.3939 30.2891 26.5419C30.693 26.7143 31.0464 26.869 31.4087 27.0326C32.1571 27.3656 32.9471 27.7166 33.7222 28.011C33.743 28.0199 33.7668 28.0288 33.7905 28.0378L33.79 28.0496Z" fill="#36A342"/>
</svg>
