<svg width="59" height="47" viewBox="0 0 59 47" fill="none" xmlns="http://www.w3.org/2000/svg">
<path d="M59 27.1796V20.2025C59 18.9988 58.0259 18.0247 56.8222 18.0247H47.6911C44.7292 18.0247 42.3217 20.4322 42.3217 23.3941V23.988C42.3217 26.9499 44.7292 29.3574 47.6911 29.3574H56.8222C58.0259 29.3574 59 28.3833 59 27.1796ZM47.9841 27.0766C46.123 27.0766 44.6025 25.5561 44.6025 23.695C44.6025 21.8339 46.123 20.3055 47.9841 20.3055C49.8451 20.3055 51.3736 21.826 51.3736 23.695C51.3736 25.564 49.8531 27.0766 47.9841 27.0766Z" fill="#36A342"/>
<path d="M54.7789 36.7463V31.5353C54.7789 31.4244 54.6918 31.3373 54.5809 31.3373H47.691C43.6362 31.3373 40.3417 28.0428 40.3417 23.9881V23.3941C40.3417 19.3393 43.6362 16.0448 47.691 16.0448H54.5809C54.6918 16.0448 54.7789 15.9577 54.7789 15.8468V10.6438C54.7789 8.45007 52.9891 6.66027 50.7954 6.66027H17.6366C17.0902 6.66027 16.6467 6.21678 16.6467 5.67034C16.6467 5.12389 17.0902 4.6804 17.6366 4.6804H48.9027C49.0135 4.6804 49.1007 4.59329 49.1007 4.48242V2.17785C49.1007 0.974094 48.1266 0 46.9228 0H9.38455C7.30965 0 5.6228 1.68685 5.6228 3.76175V25.6591C5.6228 25.7224 5.65448 25.7779 5.702 25.8174C5.74951 25.857 5.81287 25.865 5.87623 25.8491C7.02455 25.4848 8.19663 25.2948 9.36079 25.2948C15.6172 25.2948 20.7094 30.387 20.7094 36.6434C20.7094 37.9263 20.4797 39.2093 20.0283 40.4605C20.0045 40.5239 20.0125 40.5872 20.0521 40.6427C20.0917 40.6981 20.1471 40.7298 20.2105 40.7298H50.7796C52.9733 40.7298 54.7631 38.9479 54.7631 36.7542L54.7789 36.7463Z" fill="#36A342"/>
<path d="M47.984 22.2854C47.2079 22.2854 46.5823 22.9189 46.5823 23.695C46.5823 24.4711 47.2079 25.0968 47.984 25.0968C48.7601 25.0968 49.3937 24.4711 49.3937 23.695C49.3937 22.9189 48.7601 22.2854 47.984 22.2854Z" fill="#36A342"/>
<path d="M9.36872 27.2746C4.20523 27.2746 0 31.4799 0 36.6434C0 41.8069 4.20523 46.0121 9.36872 46.0121C14.5322 46.0121 18.7374 41.8069 18.7374 36.6434C18.7374 31.4799 14.5322 27.2746 9.36872 27.2746ZM13.376 35.2337L9.16282 39.4469C8.7906 39.8191 8.13329 39.8191 7.76107 39.4469L5.34564 37.0314C5.15557 36.8493 5.05262 36.6038 5.05262 36.3424C5.05262 36.0732 5.15557 35.8277 5.34564 35.6376C5.5357 35.4475 5.78121 35.3446 6.05047 35.3446C6.31181 35.3446 6.55732 35.4475 6.73946 35.6376L8.31544 37.2136C8.39463 37.2928 8.52134 37.2928 8.59262 37.2136L11.9663 33.8399C12.1564 33.6498 12.4019 33.5469 12.6632 33.5469C12.9246 33.5469 13.178 33.6498 13.3601 33.8399C13.5502 34.0299 13.6532 34.2834 13.6532 34.5447C13.6532 34.8061 13.5502 35.0516 13.3601 35.2337H13.376Z" fill="#36A342"/>
</svg>
