<svg width="46" height="49" viewBox="0 0 46 49" fill="none" xmlns="http://www.w3.org/2000/svg">
<path d="M36.8028 29.4949C34.9049 29.4949 33.3521 31.0478 33.3521 32.9456C33.3521 34.8435 34.9049 36.3963 36.8028 36.3963H45.4296V29.4949H36.8028ZM36.8028 34.671C35.8539 34.671 35.0775 33.8946 35.0775 32.9456C35.0775 31.9967 35.8539 31.2203 36.8028 31.2203C37.7518 31.2203 38.5282 31.9967 38.5282 32.9456C38.5282 33.8946 37.7518 34.671 36.8028 34.671ZM45.4296 22.5936V26.0443H36.8028C32.9898 26.0443 29.9014 29.1327 29.9014 32.9456C29.9014 36.7586 32.9898 39.847 36.8028 39.847H45.4296V43.2977C45.4296 46.1445 43.1003 48.4738 40.2535 48.4738H5.7466C2.8998 48.4738 0.570557 46.1445 0.570557 43.2977V22.5936C0.570557 19.7468 2.8998 17.4175 5.7466 17.4175H40.2535C43.1003 17.4175 45.4296 19.7468 45.4296 22.5936ZM33.3521 0.164062H12.648C9.80119 0.164062 7.47194 2.49331 7.47194 5.3401V13.9668H16.1506C16.5819 10.5679 19.4805 7.92784 23.0001 7.92784C26.5197 7.92784 29.4183 10.5676 29.8495 13.9668H38.5282V5.3401C38.5282 2.49331 36.1989 0.164062 33.3521 0.164062ZM16.0987 6.20305C16.0987 7.15202 15.3223 7.9284 14.3733 7.9284C13.4244 7.9284 12.648 7.15202 12.648 6.20305V4.4777C12.648 3.52874 13.4244 2.75236 14.3733 2.75236C15.3223 2.75236 16.0987 3.52874 16.0987 4.4777V6.20305ZM23.0001 11.3791C21.3955 11.3791 20.0497 12.4833 19.6702 13.9671H26.3297C25.9502 12.4833 24.6046 11.3791 23.0001 11.3791Z" fill="#ee8b17"/>
</svg>
